<svg width="156" height="39" viewBox="0 0 156 39" fill="none" xmlns="http://www.w3.org/2000/svg">
<path d="M28.5706 5.14998H3.42196H0V8.47125V10.95H3.42196V8.47125H28.5706V10.95H31.9932V8.47125V5.14998H28.5706Z" fill="#18A0FB"/>
<path d="M24.0533 13.2148C24.0539 11.9216 23.7241 10.6485 23.0934 9.50945C22.4628 8.37037 21.5509 7.40086 20.4395 6.68774C19.328 5.97462 18.0517 5.54015 16.7249 5.42322C15.398 5.3063 14.0619 5.51057 12.8363 6.01775C11.6108 6.52494 10.5339 7.3192 9.70217 8.32941C8.87045 9.33963 8.30982 10.5343 8.0705 11.8064C7.83118 13.0785 7.92062 14.3883 8.33083 15.6187C8.74104 16.849 9.45921 17.9614 10.421 18.8562L8.00375 29.9609H23.9227L21.9528 18.4798C23.3065 17.0414 24.0559 15.1629 24.0533 13.2148ZM19.719 26.6643H12.273L13.4378 16.5881C12.6001 16.059 11.9584 15.2842 11.6061 14.3764C11.2538 13.4687 11.2094 12.4755 11.4792 11.5415C11.7491 10.6076 12.3192 9.78165 13.1064 9.1841C13.8937 8.58654 14.8569 8.24858 15.8559 8.21944C16.8548 8.19031 17.8373 8.47153 18.6601 9.02213C19.4829 9.57273 20.103 10.3639 20.4302 11.2805C20.7573 12.197 20.7744 13.191 20.4789 14.1177C20.1834 15.0443 19.5908 15.8551 18.7874 16.432L19.719 26.6643Z" fill="#18A0FB"/>
<path d="M23.1275 9.57251H19.3331C18.829 9.07759 18.215 8.70094 17.5381 8.47127H22.4014C22.6766 8.81675 22.9195 9.18528 23.1275 9.57251Z" fill="#18A0FB"/>
<path d="M38.4766 8.83154V6.41807H52.8577V8.83154H47.0599V25H44.2653V8.83154H38.4766ZM56.0356 25V6.41807H67.6856V8.83154H58.8392V14.4932H67.0777V16.8976H58.8392V22.5865H67.7944V25H56.0356ZM81.5653 11.2995C81.4685 10.4405 81.0693 9.77516 80.3676 9.30335C79.666 8.82549 78.7829 8.58657 77.7183 8.58657C76.9561 8.58657 76.2968 8.70754 75.7403 8.94949C75.1838 9.1854 74.7513 9.51203 74.4428 9.9294C74.1404 10.3407 73.9892 10.8095 73.9892 11.3357C73.9892 11.7773 74.092 12.1584 74.2977 12.479C74.5094 12.7996 74.7846 13.0687 75.1233 13.2865C75.4681 13.4982 75.8371 13.6766 76.2303 13.8218C76.6234 13.9609 77.0015 14.0759 77.3644 14.1666L79.1791 14.6384C79.7718 14.7836 80.3797 14.9802 81.0028 15.2282C81.6258 15.4762 82.2035 15.8028 82.7358 16.2081C83.268 16.6133 83.6975 17.1154 84.0241 17.7142C84.3568 18.313 84.5232 19.0298 84.5232 19.8646C84.5232 20.9171 84.251 21.8516 83.7066 22.6682C83.1682 23.4848 82.3849 24.129 81.3566 24.6008C80.3344 25.0726 79.0974 25.3085 77.6457 25.3085C76.2545 25.3085 75.0507 25.0877 74.0345 24.6461C73.0183 24.2046 72.2229 23.5785 71.6483 22.768C71.0737 21.9514 70.7561 20.9836 70.6956 19.8646H73.5083C73.5627 20.536 73.7805 21.0955 74.1616 21.5431C74.5487 21.9847 75.0417 22.3143 75.6405 22.5321C76.2454 22.7438 76.9077 22.8496 77.6275 22.8496C78.4199 22.8496 79.1246 22.7256 79.7416 22.4776C80.3646 22.2236 80.8546 21.8728 81.2115 21.4252C81.5683 20.9715 81.7468 20.4422 81.7468 19.8373C81.7468 19.2869 81.5895 18.8363 81.275 18.4854C80.9665 18.1346 80.5461 17.8443 80.0138 17.6144C79.4875 17.3846 78.8917 17.1819 78.2264 17.0065L76.0306 16.4077C74.5426 16.0024 73.3631 15.4066 72.4921 14.6203C71.6271 13.8339 71.1946 12.7935 71.1946 11.4991C71.1946 10.4284 71.485 9.49389 72.0657 8.69544C72.6463 7.897 73.4327 7.277 74.4247 6.83544C75.4167 6.38783 76.5357 6.16402 77.7818 6.16402C79.0399 6.16402 80.1499 6.3848 81.1116 6.82636C82.0795 7.26793 82.8416 7.87583 83.3981 8.65008C83.9546 9.41828 84.2449 10.3014 84.2691 11.2995H81.5653ZM86.9571 8.83154V6.41807H101.338V8.83154H95.5403V25H92.7458V8.83154H86.9571ZM104.516 25V6.41807H111.321C112.64 6.41807 113.731 6.63583 114.596 7.07134C115.461 7.50081 116.109 8.08452 116.538 8.82247C116.967 9.55438 117.182 10.38 117.182 11.2995C117.182 12.0737 117.04 12.727 116.756 13.2593C116.471 13.7855 116.09 14.2089 115.613 14.5295C115.141 14.8441 114.621 15.0739 114.052 15.2191V15.4005C114.669 15.4308 115.271 15.6304 115.857 15.9994C116.45 16.3623 116.94 16.8795 117.327 17.5509C117.714 18.2223 117.908 19.0389 117.908 20.0007C117.908 20.9503 117.684 21.8032 117.237 22.5593C116.795 23.3094 116.112 23.9052 115.186 24.3467C114.261 24.7822 113.078 25 111.638 25H104.516ZM107.32 22.5956H111.366C112.709 22.5956 113.671 22.3355 114.252 21.8153C114.832 21.2951 115.123 20.6449 115.123 19.8646C115.123 19.2778 114.974 18.7395 114.678 18.2495C114.382 17.7596 113.958 17.3694 113.408 17.0791C112.863 16.7887 112.216 16.6436 111.466 16.6436H107.32V22.5956ZM107.32 14.4569H111.076C111.705 14.4569 112.271 14.336 112.773 14.094C113.281 13.8521 113.683 13.5133 113.979 13.0778C114.282 12.6362 114.433 12.116 114.433 11.5172C114.433 10.749 114.164 10.1048 113.625 9.58462C113.087 9.06442 112.261 8.80432 111.149 8.80432H107.32V14.4569ZM137.375 15.709C137.375 17.693 137.012 19.3988 136.286 20.8263C135.56 22.2478 134.565 23.3426 133.301 24.1108C132.043 24.873 130.612 25.254 129.009 25.254C127.4 25.254 125.964 24.873 124.699 24.1108C123.441 23.3426 122.449 22.2448 121.723 20.8173C120.997 19.3897 120.635 17.687 120.635 15.709C120.635 13.725 120.997 12.0223 121.723 10.6008C122.449 9.1733 123.441 8.07847 124.699 7.31632C125.964 6.54812 127.4 6.16402 129.009 6.16402C130.612 6.16402 132.043 6.54812 133.301 7.31632C134.565 8.07847 135.56 9.1733 136.286 10.6008C137.012 12.0223 137.375 13.725 137.375 15.709ZM134.598 15.709C134.598 14.1968 134.353 12.9236 133.863 11.8892C133.379 10.8488 132.714 10.0625 131.867 9.53018C131.026 8.99184 130.074 8.72266 129.009 8.72266C127.938 8.72266 126.983 8.99184 126.142 9.53018C125.301 10.0625 124.636 10.8488 124.146 11.8892C123.662 12.9236 123.42 14.1968 123.42 15.709C123.42 17.2212 123.662 18.4975 124.146 19.5379C124.636 20.5723 125.301 21.3586 126.142 21.897C126.983 22.4293 127.938 22.6954 129.009 22.6954C130.074 22.6954 131.026 22.4293 131.867 21.897C132.714 21.3586 133.379 20.5723 133.863 19.5379C134.353 18.4975 134.598 17.2212 134.598 15.709ZM140.87 25V6.41807H147.494C148.933 6.41807 150.128 6.66607 151.077 7.16207C152.033 7.65807 152.747 8.34461 153.219 9.22169C153.691 10.0927 153.926 11.0998 153.926 12.2431C153.926 13.3802 153.687 14.3813 153.21 15.2463C152.738 16.1052 152.024 16.7736 151.068 17.2515C150.119 17.7293 148.924 17.9683 147.484 17.9683H142.467V15.5548H147.23C148.138 15.5548 148.876 15.4247 149.444 15.1646C150.019 14.9045 150.439 14.5265 150.705 14.0305C150.972 13.5345 151.105 12.9387 151.105 12.2431C151.105 11.5414 150.969 10.9335 150.696 10.4194C150.43 9.90521 150.01 9.51203 149.435 9.23984C148.867 8.96159 148.12 8.82247 147.194 8.82247H143.674V25H140.87ZM150.043 16.6164L154.634 25H151.44L146.94 16.6164H150.043Z" fill="black"/>
<path d="M44.6498 38.0979V31.3437H45.3789V32.124H45.4685C45.5239 32.0387 45.6006 31.93 45.6987 31.7978C45.7989 31.6635 45.9418 31.5441 46.1273 31.4396C46.3149 31.333 46.5686 31.2797 46.8884 31.2797C47.302 31.2797 47.6666 31.3831 47.9821 31.5899C48.2977 31.7967 48.5439 32.0899 48.7209 32.4694C48.8978 32.8489 48.9863 33.2966 48.9863 33.8126C48.9863 34.3328 48.8978 34.7837 48.7209 35.1653C48.5439 35.5448 48.2987 35.839 47.9853 36.048C47.6719 36.2548 47.3105 36.3582 46.9012 36.3582C46.5856 36.3582 46.333 36.306 46.1432 36.2015C45.9535 36.0949 45.8075 35.9744 45.7051 35.8401C45.6028 35.7037 45.5239 35.5907 45.4685 35.5011H45.4045V38.0979H44.6498ZM45.3917 33.7998C45.3917 34.1707 45.4461 34.498 45.5548 34.7816C45.6635 35.063 45.8224 35.2837 46.0313 35.4436C46.2403 35.6013 46.4961 35.6802 46.7988 35.6802C47.1144 35.6802 47.3777 35.5971 47.5888 35.4308C47.802 35.2623 47.9619 35.0363 48.0685 34.7528C48.1772 34.4671 48.2316 34.1494 48.2316 33.7998C48.2316 33.4544 48.1783 33.1431 48.0717 32.8659C47.9672 32.5866 47.8084 32.366 47.5952 32.2039C47.3841 32.0398 47.1186 31.9577 46.7988 31.9577C46.4918 31.9577 46.2339 32.0355 46.0249 32.1911C45.816 32.3447 45.6582 32.56 45.5516 32.8372C45.445 33.1122 45.3917 33.4331 45.3917 33.7998ZM50.1376 36.2559V31.3437H50.8668V32.0856H50.9179C51.0075 31.8426 51.1695 31.6454 51.404 31.494C51.6385 31.3426 51.9029 31.2669 52.1971 31.2669C52.2526 31.2669 52.3219 31.268 52.405 31.2701C52.4882 31.2722 52.5511 31.2754 52.5937 31.2797V32.0472C52.5681 32.0408 52.5095 32.0312 52.4178 32.0185C52.3283 32.0035 52.2334 31.9961 52.1332 31.9961C51.8944 31.9961 51.6812 32.0462 51.4936 32.1464C51.3081 32.2445 51.161 32.3809 51.0522 32.5557C50.9456 32.7284 50.8923 32.9256 50.8923 33.1474V36.2559H50.1376ZM54.9339 36.371C54.6226 36.371 54.3401 36.3124 54.0864 36.1951C53.8327 36.0757 53.6312 35.9041 53.4819 35.6802C53.3327 35.4542 53.2581 35.1813 53.2581 34.8615C53.2581 34.5801 53.3135 34.352 53.4244 34.1771C53.5352 34.0002 53.6834 33.8616 53.8689 33.7614C54.0544 33.6612 54.2591 33.5866 54.4829 33.5375C54.7089 33.4864 54.936 33.4458 55.1641 33.416C55.4626 33.3776 55.7046 33.3488 55.8901 33.3297C56.0777 33.3083 56.2141 33.2732 56.2994 33.2241C56.3868 33.1751 56.4305 33.0898 56.4305 32.9683V32.9427C56.4305 32.6271 56.3442 32.382 56.1715 32.2071C56.0009 32.0323 55.7419 31.9449 55.3944 31.9449C55.0341 31.9449 54.7516 32.0238 54.5469 32.1816C54.3422 32.3393 54.1983 32.5078 54.1152 32.6868L53.3988 32.431C53.5267 32.1325 53.6973 31.9001 53.9105 31.7338C54.1258 31.5654 54.3603 31.4481 54.6141 31.382C54.8699 31.3138 55.1215 31.2797 55.3688 31.2797C55.5266 31.2797 55.7078 31.2989 55.9125 31.3373C56.1193 31.3735 56.3186 31.4492 56.5105 31.5643C56.7045 31.6795 56.8655 31.8532 56.9934 32.0856C57.1213 32.318 57.1853 32.6293 57.1853 33.0194V36.2559H56.4305V35.5907H56.3922C56.341 35.6973 56.2557 35.8113 56.1363 35.9329C56.0169 36.0544 55.8581 36.1578 55.6598 36.2431C55.4615 36.3283 55.2196 36.371 54.9339 36.371ZM55.049 35.693C55.3475 35.693 55.5991 35.6344 55.8037 35.5171C56.0105 35.3999 56.1662 35.2485 56.2706 35.063C56.3772 34.8775 56.4305 34.6824 56.4305 34.4777V33.787C56.3986 33.8253 56.3282 33.8605 56.2195 33.8925C56.1129 33.9224 55.9892 33.949 55.8485 33.9725C55.7099 33.9938 55.5745 34.013 55.4423 34.03C55.3123 34.0449 55.2068 34.0577 55.1257 34.0684C54.9296 34.094 54.7462 34.1356 54.5757 34.1931C54.4072 34.2486 54.2708 34.3328 54.1663 34.4458C54.064 34.5566 54.0128 34.708 54.0128 34.8999C54.0128 35.1621 54.1098 35.3604 54.3038 35.4947C54.5 35.6269 54.7484 35.693 55.049 35.693ZM60.5584 36.3582C60.0979 36.3582 59.7013 36.2495 59.3687 36.032C59.0361 35.8145 58.7803 35.515 58.6012 35.1333C58.4221 34.7517 58.3326 34.3157 58.3326 33.8253C58.3326 33.3265 58.4243 32.8862 58.6076 32.5046C58.7931 32.1208 59.0511 31.8212 59.3815 31.6059C59.7141 31.3884 60.1022 31.2797 60.5456 31.2797C60.891 31.2797 61.2023 31.3437 61.4794 31.4716C61.7566 31.5995 61.9837 31.7786 62.1606 32.0089C62.3376 32.2391 62.4474 32.5078 62.49 32.8148H61.7353C61.6777 32.5909 61.5498 32.3926 61.3515 32.2199C61.1554 32.0451 60.891 31.9577 60.5584 31.9577C60.2642 31.9577 60.0062 32.0344 59.7845 32.188C59.5649 32.3393 59.3933 32.5536 59.2696 32.8308C59.1481 33.1058 59.0873 33.4288 59.0873 33.7998C59.0873 34.1793 59.147 34.5097 59.2664 34.7912C59.3879 35.0726 59.5585 35.2911 59.7781 35.4468C59.9998 35.6024 60.2599 35.6802 60.5584 35.6802C60.7546 35.6802 60.9326 35.6461 61.0925 35.5779C61.2524 35.5096 61.3878 35.4116 61.4986 35.2837C61.6095 35.1557 61.6884 35.0022 61.7353 34.8231H62.49C62.4474 35.1131 62.3419 35.3743 62.1734 35.6067C62.0071 35.8369 61.7865 36.0203 61.5114 36.1567C61.2385 36.291 60.9209 36.3582 60.5584 36.3582ZM65.7296 31.3437V31.9833H63.184V31.3437H65.7296ZM63.9259 30.1668H64.6807V34.8487C64.6807 35.0619 64.7116 35.2218 64.7734 35.3284C64.8374 35.4329 64.9184 35.5033 65.0165 35.5395C65.1167 35.5736 65.2222 35.5907 65.3331 35.5907C65.4162 35.5907 65.4845 35.5864 65.5378 35.5779C65.5911 35.5672 65.6337 35.5587 65.6657 35.5523L65.8192 36.2303C65.768 36.2495 65.6966 36.2687 65.6049 36.2878C65.5132 36.3092 65.397 36.3198 65.2563 36.3198C65.0431 36.3198 64.8342 36.274 64.6295 36.1823C64.427 36.0906 64.2585 35.951 64.1242 35.7634C63.992 35.5757 63.9259 35.3391 63.9259 35.0534V30.1668ZM66.8649 36.2559V31.3437H67.6197V36.2559H66.8649ZM67.2487 30.525C67.1016 30.525 66.9747 30.4749 66.8681 30.3747C66.7637 30.2745 66.7114 30.154 66.7114 30.0133C66.7114 29.8726 66.7637 29.7521 66.8681 29.6519C66.9747 29.5517 67.1016 29.5016 67.2487 29.5016C67.3958 29.5016 67.5216 29.5517 67.6261 29.6519C67.7327 29.7521 67.786 29.8726 67.786 30.0133C67.786 30.154 67.7327 30.2745 67.6261 30.3747C67.5216 30.4749 67.3958 30.525 67.2487 30.525ZM70.9976 36.3582C70.5371 36.3582 70.1405 36.2495 69.8079 36.032C69.4753 35.8145 69.2195 35.515 69.0404 35.1333C68.8613 34.7517 68.7718 34.3157 68.7718 33.8253C68.7718 33.3265 68.8635 32.8862 69.0468 32.5046C69.2323 32.1208 69.4903 31.8212 69.8207 31.6059C70.1533 31.3884 70.5414 31.2797 70.9848 31.2797C71.3302 31.2797 71.6415 31.3437 71.9187 31.4716C72.1958 31.5995 72.4229 31.7786 72.5998 32.0089C72.7768 32.2391 72.8866 32.5078 72.9292 32.8148H72.1745C72.1169 32.5909 71.989 32.3926 71.7907 32.2199C71.5946 32.0451 71.3302 31.9577 70.9976 31.9577C70.7034 31.9577 70.4454 32.0344 70.2237 32.188C70.0041 32.3393 69.8325 32.5536 69.7088 32.8308C69.5873 33.1058 69.5265 33.4288 69.5265 33.7998C69.5265 34.1793 69.5862 34.5097 69.7056 34.7912C69.8271 35.0726 69.9977 35.2911 70.2173 35.4468C70.439 35.6024 70.6991 35.6802 70.9976 35.6802C71.1938 35.6802 71.3718 35.6461 71.5317 35.5779C71.6916 35.5096 71.827 35.4116 71.9378 35.2837C72.0487 35.1557 72.1276 35.0022 72.1745 34.8231H72.9292C72.8866 35.1131 72.7811 35.3743 72.6126 35.6067C72.4463 35.8369 72.2257 36.0203 71.9506 36.1567C71.6777 36.291 71.3601 36.3582 70.9976 36.3582ZM76.0921 36.3582C75.6188 36.3582 75.2105 36.2537 74.8672 36.0448C74.5261 35.8337 74.2628 35.5395 74.0773 35.1621C73.894 34.7826 73.8023 34.3413 73.8023 33.8381C73.8023 33.335 73.894 32.8915 74.0773 32.5078C74.2628 32.1219 74.5208 31.8212 74.8513 31.6059C75.1839 31.3884 75.5719 31.2797 76.0153 31.2797C76.2712 31.2797 76.5238 31.3223 76.7733 31.4076C77.0227 31.4929 77.2498 31.6315 77.4545 31.8234C77.6591 32.0131 77.8222 32.2647 77.9438 32.5781C78.0653 32.8915 78.126 33.2774 78.126 33.7358V34.0556H74.3396V33.4032H77.3585C77.3585 33.126 77.3031 32.8787 77.1922 32.6613C77.0835 32.4438 76.9278 32.2722 76.7253 32.1464C76.5249 32.0206 76.2882 31.9577 76.0153 31.9577C75.7147 31.9577 75.4546 32.0323 75.235 32.1816C75.0176 32.3287 74.8502 32.5205 74.7329 32.7572C74.6157 32.9939 74.557 33.2476 74.557 33.5183V33.9533C74.557 34.3242 74.621 34.6387 74.7489 34.8967C74.879 35.1525 75.0591 35.3476 75.2894 35.4819C75.5196 35.6141 75.7872 35.6802 76.0921 35.6802C76.2904 35.6802 76.4695 35.6525 76.6294 35.5971C76.7914 35.5395 76.931 35.4542 77.0483 35.3412C77.1656 35.2261 77.2562 35.0832 77.3201 34.9127L78.0493 35.1174C77.9725 35.3647 77.8436 35.5821 77.6623 35.7698C77.4811 35.9552 77.2572 36.1002 76.9907 36.2047C76.7242 36.307 76.4247 36.3582 76.0921 36.3582ZM83.9433 31.3437V31.9833H81.3976V31.3437H83.9433ZM82.1396 30.1668H82.8943V34.8487C82.8943 35.0619 82.9252 35.2218 82.9871 35.3284C83.051 35.4329 83.132 35.5033 83.2301 35.5395C83.3303 35.5736 83.4359 35.5907 83.5467 35.5907C83.6299 35.5907 83.6981 35.5864 83.7514 35.5779C83.8047 35.5672 83.8473 35.5587 83.8793 35.5523L84.0328 36.2303C83.9817 36.2495 83.9102 36.2687 83.8186 36.2878C83.7269 36.3092 83.6107 36.3198 83.47 36.3198C83.2568 36.3198 83.0478 36.274 82.8432 36.1823C82.6406 36.0906 82.4722 35.951 82.3379 35.7634C82.2057 35.5757 82.1396 35.3391 82.1396 35.0534V30.1668ZM87.0854 36.3582C86.612 36.3582 86.2038 36.2537 85.8605 36.0448C85.5194 35.8337 85.2561 35.5395 85.0706 35.1621C84.8872 34.7826 84.7956 34.3413 84.7956 33.8381C84.7956 33.335 84.8872 32.8915 85.0706 32.5078C85.2561 32.1219 85.5141 31.8212 85.8445 31.6059C86.1771 31.3884 86.5651 31.2797 87.0086 31.2797C87.2645 31.2797 87.5171 31.3223 87.7665 31.4076C88.016 31.4929 88.2431 31.6315 88.4477 31.8234C88.6524 32.0131 88.8155 32.2647 88.937 32.5781C89.0586 32.8915 89.1193 33.2774 89.1193 33.7358V34.0556H85.3328V33.4032H88.3518C88.3518 33.126 88.2964 32.8787 88.1855 32.6613C88.0768 32.4438 87.9211 32.2722 87.7186 32.1464C87.5182 32.0206 87.2815 31.9577 87.0086 31.9577C86.708 31.9577 86.4479 32.0323 86.2283 32.1816C86.0108 32.3287 85.8435 32.5205 85.7262 32.7572C85.6089 32.9939 85.5503 33.2476 85.5503 33.5183V33.9533C85.5503 34.3242 85.6143 34.6387 85.7422 34.8967C85.8722 35.1525 86.0524 35.3476 86.2827 35.4819C86.5129 35.6141 86.7805 35.6802 87.0854 35.6802C87.2836 35.6802 87.4627 35.6525 87.6226 35.5971C87.7847 35.5395 87.9243 35.4542 88.0416 35.3412C88.1588 35.2261 88.2494 35.0832 88.3134 34.9127L89.0426 35.1174C88.9658 35.3647 88.8368 35.5821 88.6556 35.7698C88.4744 35.9552 88.2505 36.1002 87.984 36.2047C87.7175 36.307 87.418 36.3582 87.0854 36.3582ZM93.7469 32.4438L93.0689 32.6357C93.0263 32.5227 92.9634 32.4129 92.8802 32.3063C92.7992 32.1975 92.6883 32.108 92.5476 32.0376C92.4069 31.9673 92.2267 31.9321 92.0071 31.9321C91.7065 31.9321 91.456 32.0014 91.2556 32.14C91.0573 32.2764 90.9582 32.4502 90.9582 32.6613C90.9582 32.8489 91.0264 32.9971 91.1629 33.1058C91.2993 33.2145 91.5125 33.3051 91.8025 33.3776L92.5316 33.5567C92.9708 33.6633 93.2981 33.8264 93.5134 34.046C93.7288 34.2635 93.8364 34.5438 93.8364 34.8871C93.8364 35.1685 93.7554 35.4201 93.5934 35.6418C93.4335 35.8636 93.2096 36.0384 92.9218 36.1663C92.634 36.2942 92.2992 36.3582 91.9176 36.3582C91.4166 36.3582 91.0019 36.2495 90.6736 36.032C90.3452 35.8145 90.1374 35.4969 90.0499 35.079L90.7663 34.8999C90.8345 35.1643 90.9635 35.3625 91.1533 35.4947C91.3451 35.6269 91.5957 35.693 91.9048 35.693C92.2566 35.693 92.5359 35.6184 92.7427 35.4691C92.9516 35.3178 93.0561 35.1365 93.0561 34.9255C93.0561 34.7549 92.9964 34.6121 92.877 34.4969C92.7576 34.3797 92.5743 34.2923 92.3269 34.2347L91.5082 34.0428C91.0584 33.9362 90.7279 33.771 90.5169 33.5471C90.3079 33.3211 90.2034 33.0386 90.2034 32.6996C90.2034 32.4225 90.2813 32.1773 90.4369 31.9641C90.5947 31.7509 90.8089 31.5835 91.0797 31.462C91.3526 31.3405 91.6618 31.2797 92.0071 31.2797C92.4932 31.2797 92.8749 31.3863 93.152 31.5995C93.4313 31.8127 93.6296 32.0941 93.7469 32.4438ZM97.1088 31.3437V31.9833H94.5632V31.3437H97.1088ZM95.3051 30.1668H96.0599V34.8487C96.0599 35.0619 96.0908 35.2218 96.1526 35.3284C96.2166 35.4329 96.2976 35.5033 96.3957 35.5395C96.4959 35.5736 96.6014 35.5907 96.7123 35.5907C96.7954 35.5907 96.8636 35.5864 96.9169 35.5779C96.9702 35.5672 97.0129 35.5587 97.0449 35.5523L97.1984 36.2303C97.1472 36.2495 97.0758 36.2687 96.9841 36.2878C96.8924 36.3092 96.7762 36.3198 96.6355 36.3198C96.4223 36.3198 96.2134 36.274 96.0087 36.1823C95.8061 36.0906 95.6377 35.951 95.5034 35.7634C95.3712 35.5757 95.3051 35.3391 95.3051 35.0534V30.1668ZM101.636 32.4438L100.958 32.6357C100.915 32.5227 100.852 32.4129 100.769 32.3063C100.688 32.1975 100.577 32.108 100.436 32.0376C100.296 31.9673 100.116 31.9321 99.8959 31.9321C99.5953 31.9321 99.3448 32.0014 99.1444 32.14C98.9461 32.2764 98.847 32.4502 98.847 32.6613C98.847 32.8489 98.9152 32.9971 99.0516 33.1058C99.1881 33.2145 99.4013 33.3051 99.6912 33.3776L100.42 33.5567C100.86 33.6633 101.187 33.8264 101.402 34.046C101.618 34.2635 101.725 34.5438 101.725 34.8871C101.725 35.1685 101.644 35.4201 101.482 35.6418C101.322 35.8636 101.098 36.0384 100.811 36.1663C100.523 36.2942 100.188 36.3582 99.8064 36.3582C99.3053 36.3582 98.8907 36.2495 98.5623 36.032C98.234 35.8145 98.0261 35.4969 97.9387 35.079L98.6551 34.8999C98.7233 35.1643 98.8523 35.3625 99.042 35.4947C99.2339 35.6269 99.4844 35.693 99.7936 35.693C100.145 35.693 100.425 35.6184 100.631 35.4691C100.84 35.3178 100.945 35.1365 100.945 34.9255C100.945 34.7549 100.885 34.6121 100.766 34.4969C100.646 34.3797 100.463 34.2923 100.216 34.2347L99.397 34.0428C98.9472 33.9362 98.6167 33.771 98.4056 33.5471C98.1967 33.3211 98.0922 33.0386 98.0922 32.6996C98.0922 32.4225 98.17 32.1773 98.3257 31.9641C98.4834 31.7509 98.6977 31.5835 98.9685 31.462C99.2414 31.3405 99.5505 31.2797 99.8959 31.2797C100.382 31.2797 100.764 31.3863 101.041 31.5995C101.32 31.8127 101.518 32.0941 101.636 32.4438Z" fill="#18A0FB"/>
</svg>
